<svg width="415.4199951171875px" height="122.021240234375px" xmlns="http://www.w3.org/2000/svg" viewBox="42.290002441406244 13.9893798828125 415.4199951171875 122.021240234375" style="background: rgba(0, 0, 0, 0);" preserveAspectRatio="xMidYMid"><defs><linearGradient id="editing-outline-gradient" x1="-0.41354545764260087" x2="1.4135454576426008" y1="0.09326335692419985" y2="0.9067366430758002"><stop offset="0" stop-color="#000000"></stop><stop offset="1" stop-color="#000000"></stop></linearGradient><filter id="editing-outline" x="-100%" y="-100%" width="300%" height="300%"><feMorphology in="SourceGraphic" operator="dilate" radius="1" result="outline"></feMorphology><feComposite operator="out" in="outline" in2="SourceAlpha"></feComposite></filter></defs><g filter="url(#editing-outline)"><g transform="translate(105.22750306129456, 97.42218780517578)"><path d="M14.14 0L0.51 0L7.81-38.91L8.51-42.24L22.21-42.24L14.14 0ZM40.13-3.78L40.13-3.78L40.13-3.78Q38.40 1.28 31.74 1.28L31.74 1.28L31.74 1.28Q26.82 1.28 23.42-4.61L23.42-4.61L23.42-4.61Q19.97-10.50 19.33-20.10L19.33-20.10L19.33-20.10Q26.37-32.96 31.23-38.27L31.23-38.27L31.23-38.27Q35.90-43.33 40.77-43.33L40.77-43.33L40.77-43.33Q43.39-43.33 45.28-41.92L45.28-41.92L45.28-41.92Q47.17-40.51 47.62-38.27L47.62-38.27L47.62-38.27Q45.44-37.38 44.42-36.67L44.42-36.67L44.42-36.67Q41.86-34.75 38.40-30.46L38.40-30.46L32.58-23.49L32.58-23.49Q31.17-21.82 30.59-21.06L30.59-21.06L30.59-21.06Q31.55-15.68 34.43-10.37L34.43-10.37L34.43-10.37Q37.18-5.31 40.13-3.78ZM45.12-15.62L45.12-15.62L45.12-15.62Q45.12-27.71 51.39-35.33L51.39-35.33L51.39-35.33Q58.05-43.58 69.63-43.58L69.63-43.58L69.63-43.58Q78.02-43.58 82.24-39.52L82.24-39.52L82.24-39.52Q86.46-35.46 86.46-26.88L86.46-26.88L86.46-26.88Q86.46-13.82 79.81-6.21L79.81-6.21L79.81-6.21Q73.22 1.28 62.14 1.28L62.14 1.28L62.14 1.28Q53.50 1.28 49.31-3.04L49.31-3.04L49.31-3.04Q45.12-7.36 45.12-15.62ZM61.95-28.86L61.95-28.86L61.95-28.86Q59.07-17.34 59.07-8.26L59.07-8.26L59.07-8.26Q59.07-6.08 59.81-4.67L59.81-4.67L59.81-4.67Q60.54-3.26 62.50-3.26L62.50-3.26L62.50-3.26Q64.45-3.26 65.66-4.19L65.66-4.19L65.66-4.19Q66.88-5.12 67.84-7.23L67.84-7.23L67.84-7.23Q69.38-10.69 70.82-18.02L70.82-18.02L70.82-18.02Q72.26-25.34 72.38-28.38L72.38-28.38L72.38-28.38Q72.51-31.42 72.51-33.73L72.51-33.73L72.51-33.73Q72.51-36.03 71.81-37.50L71.81-37.50L71.81-37.50Q71.10-38.98 69.22-38.98L69.22-38.98L69.22-38.98Q67.33-38.98 66.05-37.82L66.05-37.82L66.05-37.82Q63.68-35.65 61.95-28.86ZM88.96-0.32L88.96-0.32L97.02-42.24L97.02-42.24Q104.58-42.88 109.44-42.88L109.44-42.88L109.44-42.88Q114.30-42.88 117.44-42.46L117.44-42.46L117.44-42.46Q120.58-42.05 122.69-40.96L122.69-40.96L122.69-40.96Q126.91-38.91 126.91-33.28L126.91-33.28L126.91-33.28Q126.91-30.02 124.10-27.26L124.10-27.26L124.10-27.26Q121.47-24.77 118.59-24.19L118.59-24.19L118.59-24.19Q121.66-23.68 123.84-21.38L123.84-21.38L123.84-21.38Q126.14-18.94 126.14-15.17L126.14-15.17L126.14-15.17Q126.14-7.87 120.70-3.62L120.70-3.62L120.70-3.62Q115.26 0.64 104.58 0.64L104.58 0.64L104.58 0.64Q97.22 0.64 88.96-0.32ZM106.37-20.61L103.17-4.03L103.17-4.03Q103.74-3.97 103.87-3.97L103.87-3.97L104.45-3.97L104.45-3.97Q109.70-3.97 111.94-7.42L111.94-7.42L111.94-7.42Q113.60-10.11 113.60-15.04L113.60-15.04L113.60-15.04Q113.60-17.66 111.90-19.07L111.90-19.07L111.90-19.07Q110.21-20.48 106.37-20.61L106.37-20.61ZM116.10-33.22L116.10-33.22L116.10-33.22Q116.10-38.53 110.98-38.53L110.98-38.53L110.40-38.53L110.40-38.53Q110.14-38.53 109.76-38.46L109.76-38.46L107.20-24.96L107.84-24.96L107.84-24.96Q116.10-25.15 116.10-33.22ZM158.14 1.28L158.14 1.28L158.14 1.28Q149.95 1.28 149.18-10.37L149.18-10.37L138.18-10.37L138.18-10.37Q136.90-7.42 136-4.86L136-4.86L134.34 0L125.38 0L145.54-42.24L159.30-42.24L161.98-11.14L161.98-11.14Q162.62-4.42 165.18-2.43L165.18-2.43L165.18-2.43Q163.33 1.28 158.14 1.28ZM143.68-23.17L140.16-15.04L148.99-15.04L148.22-31.49L148.22-33.22L143.68-23.17ZM195.65-9.86L195.65-9.86L195.65-9.86Q196.86-8.32 196.86-5.34L196.86-5.34L196.86-5.34Q196.86-2.37 194.59-0.54L194.59-0.54L194.59-0.54Q192.32 1.28 188.35 1.28L188.35 1.28L188.35 1.28Q186.05 1.28 182.46 0.77L182.46 0.77L182.46 0.77Q175.42-0.32 173.41-0.32L173.41-0.32L173.41-0.32Q171.39-0.32 170.56-0.22L170.56-0.22L170.56-0.22Q169.73-0.13 168.38 0L168.38 0L176.13-42.24L190.14-42.24L183.74-7.04L183.74-7.04Q184.58-6.91 185.34-6.91L185.34-6.91L186.94-6.91L186.94-6.91Q192.32-6.91 195.65-9.86ZM201.47-15.62L201.47-15.62L201.47-15.62Q201.47-27.71 207.74-35.33L207.74-35.33L207.74-35.33Q214.40-43.58 225.98-43.58L225.98-43.58L225.98-43.58Q234.37-43.58 238.59-39.52L238.59-39.52L238.59-39.52Q242.82-35.46 242.82-26.88L242.82-26.88L242.82-26.88Q242.82-13.82 236.16-6.21L236.16-6.21L236.16-6.21Q229.57 1.28 218.50 1.28L218.50 1.28L218.50 1.28Q209.86 1.28 205.66-3.04L205.66-3.04L205.66-3.04Q201.47-7.36 201.47-15.62ZM218.30-28.86L218.30-28.86L218.30-28.86Q215.42-17.34 215.42-8.26L215.42-8.26L215.42-8.26Q215.42-6.08 216.16-4.67L216.16-4.67L216.16-4.67Q216.90-3.26 218.85-3.26L218.85-3.26L218.85-3.26Q220.80-3.26 222.02-4.19L222.02-4.19L222.02-4.19Q223.23-5.12 224.19-7.23L224.19-7.23L224.19-7.23Q225.73-10.69 227.17-18.02L227.17-18.02L227.17-18.02Q228.61-25.34 228.74-28.38L228.74-28.38L228.74-28.38Q228.86-31.42 228.86-33.73L228.86-33.73L228.86-33.73Q228.86-36.03 228.16-37.50L228.16-37.50L228.16-37.50Q227.46-38.98 225.57-38.98L225.57-38.98L225.57-38.98Q223.68-38.98 222.40-37.82L222.40-37.82L222.40-37.82Q220.03-35.65 218.30-28.86ZM269.82-4.80L269.82-4.80L269.82-4.80Q269.82-9.28 271.62-18.24L271.62-18.24L262.14-18.24L258.62 0L245.25 0L253.38-42.24L266.88-42.24L263.17-23.36L272.64-23.36L276.16-42.24L289.66-42.24L289.66-42.24Q288.77-37.50 287.62-32.19L287.62-32.19L285.44-21.76L285.44-21.76Q283.01-9.60 283.01-4.29L283.01-4.29L283.01-4.29Q283.01-2.11 283.71-0.90L283.71-0.90L283.71-0.90Q280.51 1.28 276.77 1.28L276.77 1.28L276.77 1.28Q273.02 1.28 271.42-0.51L271.42-0.51L271.42-0.51Q269.82-2.30 269.82-4.80Z" fill="url(#editing-outline-gradient)"></path></g></g><style>text {
  font-size: 64px;
  font-family: Arial Black;
  dominant-baseline: central;
  text-anchor: middle;
}</style></svg>