<?xml version="1.0" encoding="utf-8"?>
<!-- Generator: Adobe Illustrator 23.0.3, SVG Export Plug-In . SVG Version: 6.00 Build 0)  -->
<svg version="1.1" baseProfile="tiny" xmlns="http://www.w3.org/2000/svg" xmlns:xlink="http://www.w3.org/1999/xlink" x="0px"
	 y="0px" viewBox="0 0 453.6 340.08" xml:space="preserve">
<g id="teste">
</g>
<g id="Прямоугольник_x2C__скругл._углы_1_1_">
</g>
<g id="na">
</g>
<g id="Фигура_1_1_">
	<g>
		<g xmlns="http://www.w3.org/2000/svg">
			
			<path d="M199,127.56c0,28.38,0,56.76,0,85.23c-0.64,0-1.21,0-1.89,0c-0.02-0.39-0.06-0.78-0.06-1.16c0-27.66,0-55.33,0-82.99     c0-0.36,0.03-0.72,0.04-1.08C197.72,127.56,198.36,127.56,199,127.56z"/>
			<path d="M74.93,203.19c0-19.41,0-38.76,0-58.21c37.56,0,75.09,0,112.7,0c0,19.36,0,38.74,0,58.21     C150.13,203.19,112.6,203.19,74.93,203.19z M86.75,159.73c0,2.68,0,5.22,0,7.88c1.72,0,3.38,0,5.07,0c0,6.14,0,12.14,0,18.28     c-1.76,0-3.41,0-5.07,0c0,2.67,0,5.21,0,7.78c7.12,0,14.17,0,21.22,0c0-2.63,0-5.18,0-7.85c-1.72,0-3.38,0-4.98,0     c-0.1-0.2-0.16-0.26-0.16-0.33c-0.02-4.8-0.03-9.6-0.02-14.4c0-0.3,0.21-0.71,0.46-0.87c1.83-1.23,3.8-2.03,6.06-1.9     c1.4,0.08,2.25,0.73,2.53,2.11c0.19,0.93,0.27,1.9,0.27,2.85c0.02,6.36,0.01,12.72,0.01,19.08c0,0.43,0,0.85,0,1.33     c5.42,0,10.68,0,15.99,0c0-2.63,0-5.2,0-7.9c-1.7,0-3.33,0-4.9,0c-0.07-0.2-0.11-0.28-0.11-0.35c-0.01-4.36,0.02-8.72-0.04-13.08     c-0.02-1.63-0.16-3.28-0.45-4.88c-1.07-5.89-4.97-8.8-10.92-8.33c-2.83,0.23-5.35,1.23-7.71,2.74c-0.35,0.23-0.72,0.43-1.26,0.76     c0-1.11,0-2,0-2.93C97.37,159.73,92.1,159.73,86.75,159.73z M164.68,185.85c0-0.64,0.01-1.11,0-1.59     c-0.08-5.12-0.01-10.24-0.28-15.35c-0.21-4.01-2.41-6.84-6.13-8.44c-2.5-1.07-5.14-1.47-7.83-1.56c-4.02-0.13-8,0.11-11.74,1.79     c-2.86,1.29-5.04,3.28-6.42,6.3c2.58,0.47,5.06,0.87,7.51,1.39c0.86,0.18,1.46,0.05,2.15-0.52c0.79-0.65,1.72-1.19,2.68-1.53     c5.49-1.9,10.05,1.79,8.99,7.24c-1.65-0.42-3.28-0.99-4.95-1.24c-5.19-0.76-9.95,0.11-13.81,4.03     c-3.88,3.94-4.2,11.82,1.59,15.47c5.33,3.36,10.72,3.1,16.09,0.02c0.36-0.21,0.71-0.42,1.17-0.69c0.05,0.94,0.09,1.71,0.14,2.47     c5.51,0,10.88,0,16.24,0c0-2.64,0-5.19,0-7.81C168.28,185.85,166.57,185.85,164.68,185.85z"/>
			<path d="M371.64,179.14c-8.68,0-17.06,0-25.43,0c-0.13,7.17,7.56,9.92,12.1,7.48c1.29-0.69,2.41-1.69,3.65-2.48     c0.38-0.24,0.96-0.48,1.34-0.37c2.56,0.75,5.1,1.6,7.94,2.51c-1.07,1.24-1.96,2.46-3.04,3.47c-4.11,3.86-9.17,4.94-14.62,4.81     c-3.44-0.08-6.78-0.63-9.81-2.32c-6.42-3.57-8.86-9.3-8.38-16.36c0.47-7.03,3.87-12.4,10.34-15.24     c6.46-2.84,12.94-2.51,18.87,1.74c3.88,2.77,5.73,6.76,6.46,11.34C371.33,175.44,371.44,177.19,371.64,179.14z M360.47,172.9     c-0.76-4.53-3.6-6.92-7.83-6.7c-3.5,0.19-6.03,2.89-6.21,6.7C351.09,172.9,355.74,172.9,360.47,172.9z"/>
			<path d="M268.82,179.15c-8.65,0-16.99,0-25.33,0c-0.27,4.03,2.62,7.43,6.79,8.19c3.4,0.62,6.11-0.74,8.51-2.9     c0.8-0.72,1.43-0.85,2.41-0.5c2.29,0.81,4.63,1.5,7.3,2.35c-1.18,1.33-2.15,2.63-3.32,3.7c-4.18,3.79-9.28,4.75-14.71,4.56     c-4.84-0.17-9.33-1.36-12.95-4.8c-4.16-3.96-5.42-8.98-4.85-14.46c1.56-14.92,17.04-19.71,27.28-14.14     c5.06,2.75,7.58,7.28,8.39,12.84C268.58,175.62,268.66,177.29,268.82,179.15z M257.69,172.91c-0.64-4.52-3.77-7.08-8.06-6.69     c-3.4,0.31-6.03,3.27-5.9,6.69C248.35,172.91,252.98,172.91,257.69,172.91z"/>
			<path d="M283.27,192.46c-0.02,0.42-0.05,0.82-0.07,1.27c-2.6,0-5.18,0-7.84,0c0-3.88,0-7.73,0-11.64c2.63,0,5.21,0,7.79,0     c1,3.58,3.99,5.54,8.07,5.13c1.27-0.13,2.56-0.57,3.74-1.08c0.93-0.4,1.36-1.31,1.27-2.38c-0.09-1.07-0.78-1.71-1.69-1.96     c-1.99-0.56-4.02-1.02-6.04-1.43c-3.37-0.69-6.73-1.42-9.75-3.16c-5.7-3.29-6.51-10.26-1.73-14.78c2.19-2.07,4.89-3,7.83-3.16     c1.71-0.09,3.44-0.03,5.14,0.19c1.68,0.23,3.33,0.74,5.1,1.16c0.05-0.22,0.12-0.51,0.2-0.85c2.49,0,5,0,7.58,0     c0,3.25,0,6.46,0,9.83c-2.4,0-4.79,0.01-7.17-0.02c-0.22,0-0.55-0.2-0.64-0.39c-0.88-1.89-2.56-2.67-4.43-2.85     c-1.84-0.17-3.73-0.07-5.58,0.13c-0.63,0.07-1.36,0.71-1.73,1.28c-0.65,1.02-0.15,2.16,1.14,2.5c2.2,0.58,4.44,0.95,6.66,1.45     c2.26,0.51,4.54,0.95,6.74,1.63c4.54,1.4,7.22,4.8,7.41,9.12c0.22,4.95-2.19,9.02-6.59,10.82c-4.05,1.65-8.26,1.73-12.46,0.57     C285.23,193.57,284.31,192.96,283.27,192.46z"/>
			<path d="M324.47,167.6c0,5.39-0.05,10.55,0.03,15.7c0.03,1.9,0.64,2.36,2.55,2.37c0.59,0,1.19-0.09,1.78-0.18     c0.54-0.09,1.07-0.25,1.81-0.42c0,2.44,0.01,4.77-0.02,7.11c0,0.2-0.28,0.5-0.49,0.58c-3.58,1.32-7.23,2.08-11.03,1.12     c-3.71-0.94-5.58-3.7-5.6-8.16c-0.02-5.56-0.01-11.11-0.01-16.67c0-0.43,0-0.86,0-1.37c-1.46,0-2.8,0-4.23,0     c0-2.66,0-5.23,0-7.93c1.37,0,2.75,0,4.23,0c0-1.6-0.03-3.07,0.02-4.53c0.01-0.38,0.16-0.91,0.44-1.12     c3.38-2.48,6.79-4.91,10.39-7.49c0,4.45,0,8.69,0,13.08c2.15,0,4.16,0,6.24,0c0,2.69,0,5.23,0,7.93     C328.56,167.6,326.55,167.6,324.47,167.6z"/>
			<path d="M210.72,167.62c-1.51,0-2.86,0-4.26,0c0-2.64,0-5.19,0-7.88c1.38,0,2.75,0,4.26,0c0-1.61-0.04-3.08,0.02-4.54     c0.02-0.41,0.22-0.96,0.53-1.19c3.25-2.39,6.54-4.73,9.82-7.08c0.09-0.06,0.21-0.08,0.46-0.18c0,4.32,0,8.57,0,12.95     c2.15,0,4.16,0,6.22,0c0,2.69,0,5.23,0,7.92c-2.03,0-4.04,0-6.18,0c0,1.17,0,2.2,0,3.23c0.02,4-0.05,8,0.08,11.99     c0.08,2.5,0.74,2.98,3.22,2.8c0.94-0.07,1.87-0.32,2.94-0.52c0,2.33,0.01,4.64-0.02,6.95c0,0.24-0.27,0.6-0.5,0.68     c-3.54,1.32-7.16,2.05-10.91,1.12c-3.55-0.88-5.55-3.45-5.62-7.38c-0.1-5.76-0.05-11.52-0.06-17.27     C210.72,168.76,210.72,168.28,210.72,167.62z"/>
			
			
			
			
			<path d="M153.93,182.47c0.09,1.09-0.41,1.79-1.22,2.26c-1.46,0.86-2.88,1.93-4.47,2.42c-3.05,0.96-5.77-1.32-5.64-4.46     c0.1-2.38,2.68-4.46,5.31-3.9c1.87,0.4,3.64,1.33,5.38,2.17C153.66,181.15,153.72,181.95,153.93,182.47z"/>
		</g>
	</g>
</g>
</svg>
